<?xml version="1.0" standalone="no"?>
<!DOCTYPE svg PUBLIC "-//W3C//DTD SVG 1.1//EN" "http://www.w3.org/Graphics/SVG/1.1/DTD/svg11.dtd" >
<!--
2013-9-30: Created.
-->
<svg>
<metadata>
Created by iconfont
</metadata>
<defs>

<font id="iconfont" horiz-adv-x="1024" >
  <font-face
    font-family="iconfont"
    font-weight="500"
    font-stretch="normal"
    units-per-em="1024"
    ascent="896"
    descent="-128"
  />
    <missing-glyph />
    
    <glyph glyph-name="x" unicode="x" horiz-adv-x="1001"
d="M281 543q-27 -1 -53 -1h-83q-18 0 -36.5 -6t-32.5 -18.5t-23 -32t-9 -45.5v-76h912v41q0 16 -0.5 30t-0.5 18q0 13 -5 29t-17 29.5t-31.5 22.5t-49.5 9h-133v-97h-438v97zM955 310v-52q0 -23 0.5 -52t0.5 -58t-10.5 -47.5t-26 -30t-33 -16t-31.5 -4.5q-14 -1 -29.5 -0.5
t-29.5 0.5h-32l-45 128h-439l-44 -128h-29h-34q-20 0 -45 1q-25 0 -41 9.5t-25.5 23t-13.5 29.5t-4 30v167h911zM163 247q-12 0 -21 -8.5t-9 -21.5t9 -21.5t21 -8.5q13 0 22 8.5t9 21.5t-9 21.5t-22 8.5zM316 123q-8 -26 -14 -48q-5 -19 -10.5 -37t-7.5 -25t-3 -15t1 -14.5
t9.5 -10.5t21.5 -4h37h67h81h80h64h36q23 0 34 12t2 38q-5 13 -9.5 30.5t-9.5 34.5q-5 19 -11 39h-368zM336 498v228q0 11 2.5 23t10 21.5t20.5 15.5t34 6h188q31 0 51.5 -14.5t20.5 -52.5v-227h-327z" />
    

    
    <glyph glyph-name="emoji" unicode="&#58880;" d="M510.944-64c-247.040 0-448 200.96-448 448s200.992 448 448 448c247.008 0 448-200.96 448-448s-200.96-448-448-448zM510.944 768c-211.744 0-384-172.256-384-384s172.256-384 384-384c211.744 0 384 172.256 384 384 0 211.744-172.256 384-384 384zM512 122.656c-89.184 0-171.904 40.32-226.912 110.624-10.88 13.92-8.448 34.016 5.472 44.896 13.888 10.912 34.016 8.48 44.928-5.472 42.784-54.688 107.136-86.048 176.512-86.048 70.112 0 134.88 31.904 177.664 87.552 10.784 14.016 30.848 16.672 44.864 5.888 14.016-10.784 16.672-30.88 5.888-44.864-55.008-71.552-138.272-112.576-228.416-112.576zM368 380.8c-26.528 0-48 21.472-48 48v64c0 26.528 21.472 48 48 48s48-21.472 48-48v-64c0-26.496-21.504-48-48-48zM656 380.8c-26.496 0-48 21.472-48 48v64c0 26.528 21.504 48 48 48s48-21.472 48-48v-64c0-26.496-21.504-48-48-48z"  horiz-adv-x="1024" />

    
    <glyph glyph-name="warn-fill" unicode="&#58942;" d="M942.656 126.624l-340.544 609.792c-22.144 39.712-55.104 62.496-90.304 62.496-35.232 0-68.16-22.784-90.368-62.528l-340.128-609.728c-22.016-39.456-24.256-79.456-6.112-110.4 18.144-30.88 54.464-48.256 99.68-48.256h674.24c45.184 0 81.536 17.376 99.648 48.256 18.176 30.944 15.904 70.912-6.112 110.368zM480 576c0 17.664 14.336 32 32 32s32-14.336 32-32v-288c0-17.696-14.336-32-32-32s-32 14.304-32 32v288zM512 63.872c-26.528 0-48 21.504-48 48s21.472 48 48 48 48-21.504 48-48-21.472-48-48-48z"  horiz-adv-x="1024" />

    
    <glyph glyph-name="warn" unicode="&#58943;" d="M849.12-32.704 174.88-32.704c-45.216 0-81.536 17.728-99.68 48.64-18.144 30.912-15.936 71.296 6.08 110.752L421.472 736.352c22.144 39.744 55.072 62.528 90.304 62.528s68.128-22.752 90.336-62.464l340.544-609.792c22.016-39.456 24.288-79.808 6.112-110.72C930.656-15.008 894.304-32.704 849.12-32.704zM511.808 734.88c-11.2 0-24.032-11.104-34.432-29.696L137.184 95.456c-10.656-19.136-13.152-36.32-6.784-47.168 6.368-10.816 22.592-17.024 44.48-17.024l674.24 0c21.92 0 38.112 6.176 44.48 17.024 6.336 10.816 3.872 28-6.816 47.136L546.24 705.184C535.872 723.776 522.976 734.88 511.808 734.88zM512 256c-17.664 0-32 14.304-32 32l0 288c0 17.664 14.336 32 32 32s32-14.336 32-32l0-288C544 270.304 529.664 256 512 256zM512 143.872m-48 0a1.5 1.5 0 1 0 96 0 1.5 1.5 0 1 0-96 0Z"  horiz-adv-x="1024" />

    
    <glyph glyph-name="folder" unicode="&#58898;" d="M856.994 638.89h-411.825c-3.927 11.76-25.818 85.504-25.818 85.504-7.105 23.832-32.999 43.133-57.854 43.133h-192.589c-57.046 0-103.525-46.411-103.608-103.458l-0.805-562.040c-0.040-27.659 10.695-53.662 30.228-73.225 19.533-19.562 45.522-30.334 73.181-30.334h689.083c57.076 0 103.509 46.432 103.509 103.503v433.415c-0.001 57.071-46.432 103.502-103.502 103.502zM896.49 97.975c0-19.021-20.479-34.498-39.503-34.498h-693.083c-9.208 0-17.856 3.582-24.352 10.089-6.496 6.505-10.065 15.156-10.052 24.363l-0.195 567.041c0.028 19.053 16.551 38.553 35.603 38.554h169.6c11.046 0 22.792-8.503 26.236-18.992 0 0 26.777-82.188 30.627-88.101 12.205-18.747 28.129-21.546 36.534-21.546h429.090c19.021 0 39.495-15.476 39.495-34.497v-442.413z"  horiz-adv-x="1024" />

    
    <glyph glyph-name="calendar" unicode="&#58894;" d="M864 620l-96 0L768 716c0 17.673-14.327 32-32 32s-32-14.327-32-32l0-96L320 620 320 716c0 17.673-14.327 32-32 32s-32-14.327-32-32l0-96-96 0c-52.935 0-96-43.065-96-96l0-576c0-52.935 43.065-96 96-96l704 0c52.935 0 96 43.065 96 96L960 524C960 576.935 916.935 620 864 620zM160 556l96 0 0-32c0-17.673 14.327-32 32-32s32 14.327 32 32l0 32 384 0 0-32c0-17.673 14.327-32 32-32s32 14.327 32 32l0 32 96 0c17.645 0 32-14.355 32-32l0-96L128 428l0 96C128 541.645 142.355 556 160 556zM864-84 160-84c-17.645 0-32 14.355-32 32L128 364l768 0 0-416C896-69.645 881.645-84 864-84zM352 236l-64 0c-17.673 0-32-14.327-32-32s14.327-32 32-32l64 0c17.673 0 32 14.327 32 32S369.673 236 352 236zM544 236l-64 0c-17.673 0-32-14.327-32-32s14.327-32 32-32l64 0c17.673 0 32 14.327 32 32S561.673 236 544 236zM736 236l-64 0c-17.673 0-32-14.327-32-32s14.327-32 32-32l64 0c17.673 0 32 14.327 32 32S753.673 236 736 236zM352 108l-64 0c-17.673 0-32-14.327-32-32s14.327-32 32-32l64 0c17.673 0 32 14.327 32 32S369.673 108 352 108zM544 108l-64 0c-17.673 0-32-14.327-32-32s14.327-32 32-32l64 0c17.673 0 32 14.327 32 32S561.673 108 544 108zM736 108l-64 0c-17.673 0-32-14.327-32-32s14.327-32 32-32l64 0c17.673 0 32 14.327 32 32S753.673 108 736 108z"  horiz-adv-x="1024" />

    
    <glyph glyph-name="loading-arc" unicode="&#58881;" d="M983.4 342c-22.4 0-40.6 18.2-40.6 40.6 0 58.4-11.4 115-34 168.2-21.8 51.5-52.9 97.7-92.6 137.4-39.7 39.7-85.9 70.9-137.4 92.6-53.3 22.5-109.9 34-168.2 34-22.4 0-40.6 18.2-40.6 40.6 0 22.4 18.2 40.6 40.6 40.6 69.3 0 136.5-13.6 199.9-40.4 61.1-25.9 116-62.9 163.2-110 47.1-47.1 84.1-102 110-163.2 26.8-63.3 40.4-130.6 40.4-199.9-0.1-22.3-18.3-40.5-40.7-40.5z"  horiz-adv-x="1025" />

    
    <glyph glyph-name="edit" unicode="&#58948;" d="M815.53-63.469h-620.392c-32.114 0-65.542 14.131-90.842 39.431-25.299 25.3-40.307 57.851-40.307 89.965v644.854c0 33.148 15.633 63.797 43.115 85.249 24.101 18.813 55.687 29.754 88.035 29.754h336.698c16.889 0 30.579-13.811 30.579-30.699s-13.691-30.699-30.579-30.699h-336.699c-33.181 0-69.751-21.061-69.751-53.604v-644.855c0-33.531 36.221-67.998 69.751-67.998h620.392c32.542 0 51.755 34.817 51.755 67.998l0 332.621c0 16.889 13.811 30.579 30.699 30.579s30.699-13.691 30.699-30.579v-332.621c0-32.348-10.015-63.056-28.828-87.158-21.452-27.482-51.177-42.237-84.326-42.237zM488.65 345.787c-9.913 0-19.827 3.782-27.39 11.346-15.127 15.127-15.127 39.65 0 54.777l409.075 409.074c15.127 15.127 39.652 15.127 54.779 0s15.127-39.65 0-54.777l-409.075-409.074c-7.563-7.564-17.477-11.346-27.389-11.346z"  horiz-adv-x="1024" />

    
    <glyph glyph-name="loading" unicode="&#58882;" d="M512 812 512 812c19.2 0 32-12.8 32-32l0-134.4c0-19.2-12.8-32-32-32l0 0c-19.2 0-32 12.8-32 32L480 780C480 799.2 492.8 812 512 812L512 812 512 812zM512-13.6 512-13.6c19.2 0 32-12.8 32-32l0-134.4C544-199.2 531.2-212 512-212l0 0c-19.2 0-32 12.8-32 32l0 134.4C480-26.4 492.8-13.6 512-13.6L512-13.6 512-13.6zM1024 300 1024 300c0-19.2-12.8-32-32-32l-134.4 0c-19.2 0-32 12.8-32 32l0 0c0 19.2 12.8 32 32 32l134.4 0C1011.2 332 1024 319.2 1024 300L1024 300 1024 300zM198.4 300 198.4 300c0-19.2-12.8-32-32-32L32 268C12.8 268 0 280.8 0 300l0 0c0 19.2 12.8 32 32 32l134.4 0C185.6 332 198.4 319.2 198.4 300L198.4 300 198.4 300zM953.6 556 953.6 556c6.4-12.8 6.4-32-12.8-44.8l-115.2-70.4c-12.8-6.4-32-6.4-44.8 12.8l0 0c-6.4 12.8-6.4 32 12.8 44.8l115.2 70.4C928 575.2 947.2 575.2 953.6 556L953.6 556 953.6 556zM243.2 146.4 243.2 146.4c6.4-12.8 6.4-32-12.8-44.8l-115.2-70.4c-12.8-6.4-32-6.4-44.8 12.8l0 0c-6.4 12.8-6.4 32 12.8 44.8l115.2 70.4C211.2 165.6 230.4 159.2 243.2 146.4L243.2 146.4 243.2 146.4zM768 741.6 768 741.6c12.8-6.4 19.2-25.6 12.8-44.8l-70.4-115.2c-6.4-12.8-25.6-19.2-44.8-12.8l0 0c-12.8 6.4-19.2 25.6-12.8 44.8l70.4 115.2C736 748 755.2 754.4 768 741.6L768 741.6 768 741.6zM358.4 31.2 358.4 31.2c12.8-6.4 19.2-25.6 12.8-44.8l-70.4-115.2C288-148 268.8-148 256-141.6l0 0c-12.8 6.4-19.2 25.6-12.8 44.8l70.4 115.2C320 37.6 339.2 37.6 358.4 31.2L358.4 31.2 358.4 31.2zM256 741.6 256 741.6C268.8 754.4 288 748 300.8 735.2l70.4-115.2c6.4-12.8 6.4-32-12.8-44.8l0 0C339.2 562.4 320 568.8 313.6 581.6L243.2 703.2C236.8 716 243.2 735.2 256 741.6L256 741.6 256 741.6zM665.6 31.2 665.6 31.2c12.8 6.4 32 6.4 44.8-12.8l70.4-115.2c6.4-12.8 6.4-32-12.8-44.8l0 0c-12.8-6.4-32-6.4-44.8 12.8l-70.4 115.2C646.4 5.6 652.8 24.8 665.6 31.2L665.6 31.2 665.6 31.2zM70.4 556 70.4 556c6.4 12.8 25.6 19.2 44.8 12.8l115.2-70.4C243.2 492 249.6 472.8 243.2 460l0 0C230.4 440.8 211.2 434.4 198.4 447.2L83.2 511.2C64 524 57.6 543.2 70.4 556L70.4 556 70.4 556zM780.8 146.4 780.8 146.4c6.4 12.8 25.6 19.2 44.8 12.8l115.2-70.4c12.8-6.4 19.2-25.6 12.8-44.8l0 0c-6.4-12.8-25.6-19.2-44.8-12.8l-115.2 70.4C780.8 108 774.4 127.2 780.8 146.4L780.8 146.4 780.8 146.4zM780.8 146.4"  horiz-adv-x="1024" />

    
    <glyph glyph-name="code" unicode="&#58899;" d="M352.548571 96.548571l-28.598857-28.598857q-5.705143-5.705143-13.165714-5.705143t-13.165714 5.705143l-266.313143 266.313143q-5.705143 5.705143-5.705143 13.165714t5.705143 13.165714l266.313143 266.313143q5.705143 5.705143 13.165714 5.705143t13.165714-5.705143l28.598857-28.598857q5.705143-5.705143 5.705143-13.165714t-5.705143-13.165714l-224.548571-224.548571 224.548571-224.548571q5.705143-5.705143 5.705143-13.165714t-5.705143-13.165714zM690.322286 706.267429l-213.138286-737.718857q-2.267429-7.460571-8.850286-11.117714t-13.458286-1.462857l-35.401143 9.728q-7.460571 2.267429-11.117714 8.850286t-1.462857 13.970286l213.138286 737.718857q2.267429 7.460571 8.850286 11.117714t13.458286 1.462857l35.401143-9.728q7.460571-2.267429 11.117714-8.850286t1.462857-13.970286zM1065.691429 334.262857l-266.313143-266.313143q-5.705143-5.705143-13.165714-5.705143t-13.165714 5.705143l-28.598857 28.598857q-5.705143 5.705143-5.705143 13.165714t5.705143 13.165714l224.548571 224.548571-224.548571 224.548571q-5.705143 5.705143-5.705143 13.165714t5.705143 13.165714l28.598857 28.598857q5.705143 5.705143 13.165714 5.705143t13.165714-5.705143l266.313143-266.313143q5.705143-5.705143 5.705143-13.165714t-5.705143-13.165714z"  horiz-adv-x="1098" />

    
    <glyph glyph-name="export" unicode="&#58929;" d="M832 269.4 832-20 191.7-20 191.7 620 480 620c17.7 0 32 14.3 32 32l0 0c0 17.7-14.3 32-32 32L191.7 684l0 0C156.5 684 128 655.5 128 620.3L128-20c0-35.3 28.7-64 64-64l640 0c35.3 0 64 28.7 64 64l0 0L896 269.4c0 17.7-14.3 32-32 32l0 0C846.3 301.4 832 287.1 832 269.4zM896 460 896 652c0 17.7-14.3 32-32 32L673 684c-17.7 0-32-14.3-32-32l0 0c0-17.7 14.3-32 32-32l113.7 0L511.3 344.6c-12.5-12.5-12.5-32.8 0-45.3l0 0c12.5-12.5 32.8-12.5 45.3 0L832 574.7 832 460c0-17.7 14.3-32 32-32l0 0C881.7 428 896 442.3 896 460z"  horiz-adv-x="1024" />

    
    <glyph glyph-name="import" unicode="&#58932;" d="M783.229 763.953c-11.579 8.712-28.028 6.389-36.741-5.19-8.34-11.083-6.612-26.743 3.944-35.742 92.804-74.292 147.837-186.242 147.837-307.299 0-217.391-176.49-393.635-394.229-393.635s-394.229 176.193-394.229 393.584c0 121.047 55.033 233.017 147.837 307.299 11.027 9.401 12.346 25.961 2.945 36.988-8.999 10.555-24.659 12.284-35.742 3.944-105.114-84.075-167.525-211.067-167.525-348.231 0-246.392 200.005-446.162 446.714-446.162s446.714 199.729 446.714 446.162c-0.010 137.164-62.411 264.156-167.525 348.282zM485.498 295.636l0.962-0.921 0.522-0.44 0.501-0.43 1.044-0.819 0.532-0.368 0.542-0.379 0.532-0.338 0.573-0.358 0.553-0.307 0.573-0.317 0.594-0.297 0.563-0.276 0.604-0.266 0.573-0.246 0.645-0.246 0.553-0.205 0.655-0.215 0.553-0.174 0.655-0.174 0.573-0.153 0.634-0.143 0.604-0.133 0.634-0.113 0.614-0.102 1.259-0.143h5.024l0.614 0.072 0.634 0.072 0.614 0.102 0.634 0.113 0.604 0.133 0.634 0.143 0.573 0.215 0.645 0.174 0.563 0.184 0.645 0.205 0.563 0.215 0.634 0.235 0.573 0.246 0.604 0.266 0.563 0.276 0.594 0.297 1.126 0.634 0.563 0.348 0.542 0.338 0.542 0.379 0.532 0.368 0.532 0.409 0.512 0.399 0.512 0.44 0.501 0.44 0.962 0.921 157.671 157.395c10.255 10.24 10.266 26.856 0.026 37.11s-26.856 10.266-37.11 0.026l-112.85-112.727v409.322c0 14.493-11.75 26.243-26.243 26.243-14.493 0-26.243-11.75-26.243-26.243v0-409.322l-112.922 112.738c-10.255 10.24-26.87 10.229-37.11-0.026-10.24-10.255-10.229-26.87 0.026-37.11l157.671-157.466z"  horiz-adv-x="1024" />

    
    <glyph glyph-name="mail" unicode="&#58900;" d="M892.915499 704.057433 130.4961 704.057433c-36.734646 0-66.514903-29.780257-66.514903-66.514903l0-570.537208c0-36.734646 29.780257-66.514903 66.514903-66.514903l762.4194 0c36.734646 0 66.514903 29.780257 66.514903 66.514903L959.430402 637.54253C959.430402 674.278199 929.651169 704.057433 892.915499 704.057433zM864.770486 640.096702c0.517793 0 1.032516-0.013303 1.544169-0.038886L511.87925 331.054137 157.434635 640.067027c0.401136 0.01535 0.802272 0.030699 1.206478 0.030699L864.770486 640.097726zM864.770486 64.45115 158.641113 64.45115c-16.95516 0-30.699186 13.744026-30.699186 30.699186L127.941927 581.122543l362.226858-315.797409c5.995551-5.995551 13.853519-8.991792 21.710464-8.991792 7.857968-0.001023 15.715937 2.996241 21.710464 8.991792l361.879957 315.494511 0-485.668285C895.469672 78.196199 881.725646 64.45115 864.770486 64.45115z"  horiz-adv-x="1024" />

    
    <glyph glyph-name="square" unicode="&#58921;" d="M832-32.001h-640c-52.929 0-96.001 43.072-96.001 95.999v640c0 52.929 43.072 96.001 96.001 96.001h640c52.927 0 95.999-43.072 95.999-96.001v-640c0.002-52.927-43.070-95.999-95.999-95.999zM192 735.999c-17.632 0-32.001-14.369-32.001-32.001v-640c0-17.665 14.369-31.999 32.001-31.999h640c17.665 0 31.999 14.336 31.999 31.999v640c0 17.632-14.336 32.001-31.999 32.001h-640z"  horiz-adv-x="1024" />

    
    <glyph glyph-name="square-check-fill" unicode="&#58922;" d="M832 799.999h-640c-52.929 0-96.001-43.072-96.001-96.001v-640c0-52.927 43.072-95.999 96.001-95.999h640c52.927 0 95.999 43.072 95.999 95.999v640c0.002 52.931-43.070 96.001-95.999 96.001zM727.231 457.568l-256.224-259.007c-0.064-0.064-0.193-0.096-0.256-0.193-0.096-0.064-0.096-0.193-0.193-0.256-2.049-1.983-4.576-3.2-6.944-4.545-1.183-0.673-2.143-1.696-3.392-2.176-3.839-1.536-7.904-2.336-11.967-2.336-4.096 0-8.224 0.8-12.096 2.4-1.28 0.544-2.303 1.632-3.52 2.303-2.369 1.343-4.832 2.529-6.881 4.545-0.064 0.064-0.096 0.193-0.16 0.256-0.064 0.096-0.193 0.096-0.256 0.193l-126.017 129.503c-12.32 12.673-12.033 32.928 0.64 45.248 12.673 12.287 32.895 12.064 45.248-0.64l103.264-106.112 233.28 235.808c12.416 12.576 32.704 12.673 45.248 0.256 12.516-12.447 12.643-32.704 0.227-45.248z"  horiz-adv-x="1024" />

    
    <glyph glyph-name="square-check" unicode="&#58923;" d="M726.977 502.816c-12.544 12.447-32.832 12.32-45.248-0.256l-233.281-235.808-103.264 106.112c-12.353 12.704-32.608 12.927-45.248 0.64-12.673-12.32-12.96-32.608-0.64-45.248l126.017-129.503c0.064-0.096 0.193-0.096 0.256-0.193 0.064-0.064 0.096-0.193 0.16-0.256 2.016-1.983 4.512-3.2 6.881-4.545 1.247-0.673 2.24-1.792 3.52-2.303 3.872-1.6 8.001-2.4 12.096-2.4 4.065 0 8.128 0.8 11.967 2.336 1.247 0.513 2.209 1.536 3.392 2.176 2.4 1.343 4.896 2.529 6.944 4.545 0.064 0.064 0.096 0.193 0.193 0.256 0.064 0.096 0.16 0.127 0.256 0.193l256.224 259.009c12.446 12.542 12.318 32.799-0.225 45.246zM832-32.001h-640c-52.929 0-96.001 43.072-96.001 95.999v640c0 52.929 43.072 96.001 96.001 96.001h640c52.927 0 95.999-43.072 95.999-96.001v-640c0.002-52.927-43.070-95.999-95.999-95.999zM192 735.999c-17.632 0-32.001-14.369-32.001-32.001v-640c0-17.665 14.369-31.999 32.001-31.999h640c17.665 0 31.999 14.336 31.999 31.999v640c0 17.632-14.336 32.001-31.999 32.001h-640z"  horiz-adv-x="1024" />

    
    <glyph glyph-name="cross" unicode="&#58912;" d="M557.312 382.751l265.28 263.904c12.544 12.48 12.607 32.704 0.127 45.248-12.513 12.576-32.704 12.607-45.248 0.127l-265.344-263.935-263.039 263.841c-12.447 12.48-32.704 12.544-45.248 0.064-12.513-12.48-12.544-32.735-0.064-45.281l262.975-263.775-265.151-263.744c-12.544-12.48-12.607-32.704-0.127-45.248 6.239-6.272 14.463-9.44 22.688-9.44 8.161 0 16.32 3.103 22.56 9.311l265.217 263.808 265.44-266.24c6.239-6.272 14.432-9.408 22.657-9.408 8.192 0 16.352 3.136 22.591 9.344 12.513 12.48 12.544 32.704 0.064 45.248l-265.379 266.177z"  horiz-adv-x="1024" />

    
    <glyph glyph-name="cross-fill" unicode="&#58913;" d="M512 832c-247.009 0-448-200.961-448-448s200.961-448 448-448c247.009 0 448 200.961 448 448s-200.961 448-448 448zM694.752 246.016c12.48-12.544 12.447-32.768-0.064-45.248-6.239-6.208-14.4-9.344-22.591-9.344-8.224 0-16.416 3.136-22.657 9.408l-137.6 138.017-138.048-136.577c-6.239-6.145-14.369-9.248-22.497-9.248-8.255 0-16.48 3.169-22.751 9.504-12.416 12.576-12.32 32.801 0.256 45.248l137.888 136.384-137.377 137.824c-12.48 12.513-12.447 32.768 0.064 45.248 12.513 12.513 32.735 12.447 45.248-0.064l137.568-137.984 138.048 136.575c12.544 12.447 32.832 12.32 45.248-0.256 12.447-12.576 12.32-32.832-0.256-45.248l-137.886-136.383 137.408-137.857z"  horiz-adv-x="1024" />

    
    <glyph glyph-name="cross-circle" unicode="&#58914;" d="M512-64c-247.039 0-448 200.961-448 448s200.961 448 448 448 448-200.961 448-448-200.961-448-448-448zM512 767.713c-211.584 0-383.713-172.128-383.713-383.713 0-211.552 172.128-383.713 383.713-383.713 211.552 0 383.713 172.159 383.713 383.713 0 211.584-172.161 383.713-383.713 383.713zM557.055 382.624l138.368 136.864c12.576 12.416 12.673 32.672 0.256 45.248s-32.704 12.673-45.248 0.256l-138.56-137.024-136.448 136.864c-12.513 12.513-32.735 12.576-45.248 0.064-12.513-12.48-12.544-32.735-0.064-45.248l136.255-136.672-137.377-135.904c-12.576-12.447-12.673-32.672-0.256-45.248 6.272-6.335 14.496-9.504 22.751-9.504 8.128 0 16.256 3.103 22.497 9.248l137.568 136.064 138.688-139.137c6.241-6.272 14.432-9.408 22.657-9.408 8.192 0 16.352 3.136 22.591 9.344 12.513 12.48 12.544 32.704 0.064 45.248l-138.493 138.944z"  horiz-adv-x="1024" />

    
    <glyph glyph-name="plus-circle" unicode="&#58918;" d="M512-62.017c-119.648 0-232.129 46.368-316.737 130.56-84.641 84.255-131.263 196.256-131.263 315.455 0 119.168 46.624 231.2 131.232 315.424 84.608 84.192 197.088 130.56 316.737 130.56s232.129-46.368 316.704-130.56c84.672-84.224 131.263-196.256 131.263-315.392 0.033-119.199-46.592-231.233-131.263-315.455-84.544-84.192-197.025-130.592-316.673-130.592zM512 766.017c-102.624 0-199.072-39.743-271.583-111.937-72.481-72.128-112.417-168.063-112.417-270.080s39.903-197.952 112.384-270.047c72.512-72.192 168.96-111.937 271.583-111.937 102.593 0 199.072 39.743 271.583 111.937 72.481 72.161 112.417 168.063 112.384 270.080 0 102.016-39.903 197.919-112.384 270.016-72.479 72.192-168.958 111.968-271.551 111.968zM736.001 415.999h-192v192c0 17.665-14.336 32.001-32.001 32.001s-32.001-14.336-32.001-32.001v-192h-191.998c-17.665 0-32.001-14.336-32.001-32.001s14.336-32.001 32.001-32.001h192v-192c0-17.696 14.336-32.001 32.001-32.001s32.001 14.303 32.001 32.001v192.002h192c17.696 0 32.001 14.336 32.001 32.001s-14.307 31.999-32.003 31.999z"  horiz-adv-x="1024" />

    
    <glyph glyph-name="plus" unicode="&#58919;" d="M863.328 414.659l-317.344-0.1v318.624c0 17.665-14.336 32.001-32.001 32.001s-31.999-14.336-31.999-32.001v-318.4l-322.369 0.177c-0.033 0-0.064 0-0.096 0-17.632 0-31.935-14.24-32.001-31.905-0.096-17.665 14.209-32.032 31.872-32.095l322.592-0.177v-319.167c0-17.696 14.336-32.001 31.999-32.001s32.001 14.303 32.001 32.001l0 318.944 317.088 0.1c0.064 0 0.096 0 0.127 0 17.632 0 31.935 14.24 32.001 31.905s-14.238 32.032-31.87 32.095z"  horiz-adv-x="1024" />

    
    <glyph glyph-name="plus-fill" unicode="&#58920;" d="M828.704 699.424c-84.608 84.192-197.056 130.56-316.704 130.56s-232.129-46.368-316.737-130.56c-84.639-84.224-131.263-196.256-131.263-315.424 0-119.199 46.624-231.2 131.232-315.424 84.608-84.192 197.088-130.56 316.737-130.56s232.129 46.368 316.704 130.56c84.672 84.255 131.296 196.288 131.263 315.455 0.031 119.168-46.561 231.169-131.232 315.393zM736.001 351.999h-192v-192c0-17.696-14.336-32.001-32.001-32.001s-32.001 14.303-32.001 32.001v192h-191.998c-17.665 0-32.001 14.336-32.001 32.001s14.336 32.001 32.001 32.001h192v191.998c0 17.665 14.336 32.001 32.001 32.001s32.001-14.336 32.001-32.001v-192h192c17.696 0 32.001-14.336 32.001-32.001s-14.307-31.999-32.003-31.999z"  horiz-adv-x="1024" />

    
    <glyph glyph-name="info-fill" unicode="&#58944;" d="M512 830.017c-245.952 0-446.017-200.064-446.017-446.017s200.064-446.017 446.017-446.017 446.017 200.064 446.017 446.017-200.064 446.017-446.017 446.017zM544.001 159.999c0-17.696-14.303-32.001-32.001-32.001s-32.001 14.303-32.001 32.001v288.001c0 17.696 14.303 32.001 32.001 32.001 17.696 0 32.001-14.303 32.001-32.001v-288.001zM512 543.999c-26.496 0-48 21.537-48 48 0 26.527 21.504 48 48 48s48-21.472 48-48c0-26.464-21.504-48-48-48z"  horiz-adv-x="1024" />

    
    <glyph glyph-name="info" unicode="&#58945;" d="M512-62.017c-245.92 0-446.017 200.064-446.017 446.017 0 245.92 200.095 446.017 446.017 446.017 245.952 0 446.017-200.064 446.017-446.017s-200.064-446.017-446.017-446.017zM512 766.017c-210.656 0-382.017-171.359-382.017-382.017 0-210.625 171.359-382.017 382.017-382.017 210.625 0 382.017 171.359 382.017 382.017s-171.392 382.017-382.017 382.017zM464 592c0-26.51 21.49-48 48-48s48 21.49 48 48-21.49 48-48 48-48-21.49-48-48zM512 128c-17.665 0-32.001 14.303-32.001 32.001v287.999c0 17.665 14.336 32.001 32.001 32.001s32.001-14.336 32.001-32.001v-287.999c0-17.697-14.336-32.001-32.001-32.001z"  horiz-adv-x="1024" />

    
    <glyph glyph-name="question-fill" unicode="&#58946;" d="M512 832c-247.039 0-448-200.961-448-448s200.961-448 448-448 448 200.961 448 448-200.961 448-448 448zM512 63.647c-26.496 0-48 21.504-48 48 0 26.496 21.504 48 48 48s48-21.504 48-48-21.504-48-48-48zM600.576 390.815c-27.84-27.809-56.576-56.545-56.576-82.368v-54.112c0-17.665-14.336-32.001-32.001-32.001s-32.001 14.336-32.001 32.001v54.112c0 52.353 40 92.352 75.328 127.647 25.887 25.887 52.672 52.64 52.672 73.984 0 53.343-43.072 96.735-95.999 96.735-53.823 0-95.999-41.536-95.999-94.559 0-17.665-14.336-31.999-32.001-31.999s-32.001 14.336-32.001 31.999c0 87.424 71.775 158.559 160.001 158.559s160.001-72.095 160.001-160.735c-0-47.87-36.32-84.159-71.424-119.263z"  horiz-adv-x="1024" />

    
    <glyph glyph-name="question" unicode="&#58947;" d="M464 111.648c0-26.51 21.49-48 48-48s48 21.49 48 48c0 26.51-21.49 48-48 48s-48-21.49-48-48zM512-64c-247.039 0-448 200.961-448 448s200.961 448 448 448 448-200.961 448-448-200.961-448-448-448zM512 767.713c-211.584 0-383.713-172.128-383.713-383.713 0-211.552 172.128-383.713 383.713-383.713 211.552 0 383.713 172.159 383.713 383.713 0 211.584-172.161 383.713-383.713 383.713zM512 222.305c-17.665 0-32.001 14.336-32.001 31.999v54.112c0 52.353 40 92.352 75.328 127.647 25.887 25.92 52.672 52.672 52.672 74.017 0 53.343-43.072 96.735-95.999 96.735-53.823 0-95.999-41.536-95.999-94.559 0-17.665-14.336-31.999-32.001-31.999s-32.001 14.336-32.001 31.999c0 87.424 71.775 158.559 160.001 158.559s160.001-72.095 160.001-160.735c0-47.904-36.32-84.192-71.424-119.296-27.84-27.776-56.576-56.512-56.576-82.336v-54.112c0-17.665-14.336-32.032-32.001-32.032z"  horiz-adv-x="1024" />

    
    <glyph glyph-name="check" unicode="&#58915;" d="M887.905 597.791c-12.864 12.064-33.152 11.487-45.215-1.409l-426.754-454.366-233.12 229.696c-12.607 12.416-32.864 12.287-45.281-0.32-12.416-12.576-12.256-32.864 0.353-45.248l256.48-252.671c0.096-0.096 0.224-0.127 0.32-0.224s0.127-0.224 0.224-0.32c2.016-1.92 4.448-3.009 6.784-4.288 1.153-0.673 2.143-1.663 3.36-2.143 3.776-1.472 7.775-2.24 11.744-2.24 4.192 0 8.384 0.833 12.287 2.496 1.313 0.544 2.336 1.663 3.552 2.369 2.4 1.409 4.896 2.592 6.944 4.672 0.096 0.096 0.127 0.256 0.224 0.353 0.064 0.096 0.193 0.127 0.287 0.224l449.183 478.208c12.162 12.829 11.491 33.085-1.373 45.212z"  horiz-adv-x="1024" />

    
    <glyph glyph-name="circle" unicode="&#58926;" d="M512-64c-247.039 0-448 200.961-448 448s200.961 448 448 448 448-200.961 448-448-200.961-448-448-448zM512 768c-211.744 0-384-172.256-384-384s172.256-384 384-384 384 172.256 384 384-172.256 384-384 384z"  horiz-adv-x="1024" />

    
    <glyph glyph-name="circle-check-fill" unicode="&#58916;" d="M512 830.017c-245.92 0-446.017-200.095-446.017-446.017 0-245.952 200.064-446.017 446.017-446.017s446.017 200.064 446.017 446.017c0 245.92-200.064 446.017-446.017 446.017zM727.231 457.568l-256.224-259.007c-0.064-0.064-0.193-0.096-0.256-0.193-0.096-0.064-0.096-0.193-0.193-0.256-2.049-1.983-4.576-3.2-6.944-4.545-1.183-0.673-2.143-1.696-3.392-2.176-3.839-1.536-7.904-2.336-11.967-2.336-4.096 0-8.224 0.8-12.096 2.4-1.28 0.544-2.303 1.632-3.52 2.303-2.369 1.343-4.832 2.529-6.881 4.545-0.064 0.064-0.096 0.193-0.16 0.256-0.064 0.096-0.193 0.096-0.256 0.193l-126.017 129.503c-12.32 12.673-12.033 32.928 0.64 45.248 12.673 12.287 32.895 12.064 45.248-0.64l103.264-106.112 233.28 235.839c12.416 12.576 32.704 12.704 45.248 0.256 12.516-12.447 12.643-32.703 0.227-45.279z"  horiz-adv-x="1024" />

    
    <glyph glyph-name="circle-check" unicode="&#58917;" d="M512-64c-247.039 0-448 200.961-448 448s200.961 448 448 448 448-200.961 448-448-200.961-448-448-448zM512 767.713c-211.584 0-383.713-172.128-383.713-383.713 0-211.552 172.128-383.713 383.713-383.713 211.552 0 383.713 172.159 383.713 383.713 0 211.584-172.161 383.713-383.713 383.713zM726.977 502.816c-12.544 12.447-32.832 12.32-45.248-0.256l-233.28-235.839-103.264 106.112c-12.353 12.704-32.608 12.927-45.248 0.64-12.673-12.32-12.96-32.608-0.64-45.248l126.017-129.503c0.064-0.096 0.193-0.096 0.256-0.193 0.064-0.064 0.096-0.193 0.16-0.256 2.016-1.983 4.512-3.2 6.881-4.545 1.247-0.673 2.24-1.792 3.52-2.303 3.872-1.6 8.001-2.4 12.096-2.4 4.065 0 8.128 0.8 11.967 2.336 1.247 0.513 2.209 1.536 3.392 2.176 2.4 1.343 4.896 2.529 6.944 4.545 0.064 0.064 0.096 0.193 0.193 0.256 0.064 0.096 0.16 0.127 0.256 0.193l256.224 259.009c12.444 12.606 12.317 32.861-0.227 45.277z"  horiz-adv-x="1024" />

    
    <glyph glyph-name="star-fill" unicode="&#58928;" d="M957.259 491.767c-3.784 11.353-13.589 19.61-25.458 21.502l-270.406 41.799-120.754 258.537c-5.332 11.181-16.513 18.406-28.898 18.406 0 0 0 0 0 0-12.385 0-23.566-7.053-28.898-18.406l-121.786-258.021-270.922-40.767c-11.869-1.72-21.674-9.977-25.63-21.33s-1.032-23.91 7.397-32.511l196.44-202.117-46.96-284.855c-2.064-12.041 3.096-24.254 13.073-31.307 9.977-7.053 23.222-7.741 33.887-1.892l241.852 132.967 241.336-133.827c4.816-2.58 10.149-3.956 15.481-3.956 0.172 0 0.516 0 0.688 0 17.717 0 31.995 14.277 31.995 31.995 0 3.956-0.688 7.741-2.064 11.353l-44.896 278.663 196.956 201.257c8.429 8.601 11.353 21.158 7.569 32.511z"  horiz-adv-x="1024" />

    
    <glyph glyph-name="star" unicode="&#58930;" d="M767.011-63.839c-5.332 0-10.665 1.376-15.481 3.956l-241.336 133.827-241.852-132.967c-10.665-5.848-23.91-5.16-33.887 1.892-9.977 7.053-15.137 19.266-13.073 31.307l46.96 284.683-196.44 202.117c-8.257 8.429-11.181 20.986-7.397 32.167 3.612 11.353 13.245 19.61 24.942 21.674l154.985 26.662c17.545 2.924 34.059-8.773 36.983-26.146s-8.773-33.887-26.146-36.983l-95.124-16.341 165.306-170.122c7.053-7.225 10.321-17.545 8.601-27.522l-38.875-235.659 199.536 109.745c9.633 5.332 21.33 5.332 30.963 0l199.192-110.433-38.015 235.831c-1.548 9.977 1.548 20.298 8.773 27.522l164.618 168.23-225.51 34.747c-10.493 1.548-19.61 8.429-24.082 18.061l-99.252 212.437-100.112-211.749c-7.569-15.997-26.662-22.878-42.659-15.309-15.997 7.569-22.878 26.662-15.309 42.659l129.183 273.502c5.332 11.181 16.513 18.406 28.898 18.406 0 0 0 0 0 0 12.385 0 23.738-7.225 28.898-18.406l120.754-258.537 270.406-41.799c11.869-1.892 21.674-10.149 25.458-21.502 3.784-11.353 0.86-23.91-7.569-32.511l-196.956-201.257 45.928-284.855c1.892-12.041-3.268-24.254-13.245-31.307-5.16-4.128-11.525-6.020-18.061-6.020z"  horiz-adv-x="1024" />

    
    <glyph glyph-name="rollback" unicode="&#58905;" d="M570.015 799.999h-6.208c-157.216 0-275.808-112.48-275.808-261.632v-429.088l-104.96 106.112c-12.416 12.576-32.672 12.673-45.248 0.256-12.576-12.447-12.673-32.672-0.256-45.248l158.496-160.255c6.239-6.335 14.496-9.504 22.751-9.504 8.128 0 16.256 3.103 22.497 9.248 0.033 0.033 0.033 0.064 0.064 0.096 0.033 0.033 0.064 0.033 0.096 0.064l159.359 158.912c12.513 12.48 12.544 32.735 0.064 45.248-12.48 12.576-32.735 12.513-45.248 0.064l-103.616-103.296 0 241.024v186.368c0 112.671 91.072 197.632 211.808 197.632h6.208c116.576 0 197.985-81.279 197.985-197.632v-506.368c0-17.696 14.303-32.001 32.001-32.001s32.001 14.303 32.001 32.001l0 506.368c0 151.617-110.175 261.632-261.985 261.632z"  horiz-adv-x="1024" />

    
    <glyph glyph-name="order" unicode="&#58895;" d="M800.038-32.016h-576.075c-52.98 0-95.984 43.004-95.984 95.984v639.892c0 52.98 43.004 95.984 95.984 95.984h575.903c52.98 0 95.984-43.004 95.984-95.984v-639.892c0.172-52.808-43.004-95.984-95.812-95.984zM223.962 736.027c-17.545 0-31.995-14.449-31.995-31.995v-639.892c0-17.717 14.449-31.995 31.995-31.995h575.903c17.717 0 31.995 14.277 31.995 31.995v639.892c0 17.545-14.277 31.995-31.995 31.995h-575.903zM640.925 351.231h-353.145c-17.717 0-31.995 14.277-31.995 31.995 0 17.717 14.277 31.995 31.995 31.995h353.145c17.717 0 31.995-14.277 31.995-31.995-0-17.717-14.277-31.995-31.995-31.995zM734.844 160.468h-447.237c-17.717 0-31.995 14.277-31.995 31.995s14.277 31.995 31.995 31.995h447.237c17.717 0 31.995-14.277 31.995-31.995s-14.277-31.995-31.995-31.995zM255.785 590.675c0-26.49 21.502-47.992 47.992-47.992s47.992 21.502 47.992 47.992-21.502 47.992-47.992 47.992-47.992-21.502-47.992-47.992zM463.062 590.675c0-26.49 21.502-47.992 47.992-47.992s47.992 21.502 47.992 47.992-21.502 47.992-47.992 47.992-47.992-21.502-47.992-47.992zM671.199 590.675c0-26.49 21.502-47.992 47.992-47.992s47.992 21.502 47.992 47.992-21.502 47.992-47.992 47.992-47.992-21.502-47.992-47.992z"  horiz-adv-x="1024" />

    
    <glyph glyph-name="feedback" unicode="&#58896;" d="M800.038-64.011h-576.075c-52.98 0-95.984 43.004-95.984 95.984v639.892c0 52.98 43.004 95.984 95.984 95.984h447.925c17.717 0 31.995-14.277 31.995-31.995s-14.277-31.995-31.995-31.995l-447.925 0c-17.545 0-31.995-14.449-31.995-31.995v-639.892c0-17.717 14.449-31.995 31.995-31.995h575.903c17.717 0 31.995 14.277 31.995 31.995v512.086c0 17.717 14.277 31.995 31.995 31.995 17.717 0 31.995-14.277 31.995-31.995v-511.914c0.172-52.98-43.004-96.156-95.812-96.156zM612.026 448.075c-8.257 0-16.341 3.096-22.706 9.461-12.557 12.557-12.557 32.683 0 45.24l318.054 317.882c12.557 12.557 32.683 12.557 45.24 0s12.557-32.683 0-45.24l-318.054-318.054c-6.193-6.193-14.449-9.289-22.534-9.289zM479.919 448.075h-191.968c-17.717 0-31.995 14.277-31.995 31.995s14.277 31.995 31.995 31.995l191.968-0c17.717 0 31.995-14.277 31.995-31.995 0-17.717-14.277-31.995-31.995-31.995zM672.059 256.108h-384.108c-17.717 0-31.995 14.277-31.995 31.995s14.277 31.995 31.995 31.995h383.935c17.717 0 31.995-14.277 31.995-31.995s-14.277-31.995-31.823-31.995z"  horiz-adv-x="1024" />

    
    <glyph glyph-name="share" unicode="&#58906;" d="M768.731 192.462c-35.607 0-67.946-14.793-91.167-38.359l-309.109 171.67c9.117 17.545 14.621 37.155 14.621 58.313 0 12.557-2.408 24.426-5.676 35.951l304.637 189.216c22.706-20.47 52.464-33.199 85.147-33.199 70.526 0 127.978 57.453 127.978 127.978s-57.453 127.978-127.978 127.978-127.978-57.453-127.978-127.978c0-14.621 2.924-28.382 7.397-41.455l-301.885-187.323c-23.050 22.706-54.7 36.983-89.791 36.983-70.526 0-127.978-57.453-127.978-127.978s57.453-127.978 127.978-127.978c25.63 0 49.54 7.741 69.494 20.814l321.15-178.379c-3.096-11.009-5.16-22.19-5.16-34.059 0-70.526 57.453-127.978 127.978-127.978s127.978 57.453 127.978 127.978-57.109 127.806-127.634 127.806zM767.183 768.022c35.263 0 63.989-28.726 63.989-63.989s-28.726-63.989-63.989-63.989-63.989 28.726-63.989 63.989 28.726 63.989 63.989 63.989zM191.108 384.086c0 35.263 28.726 63.989 63.989 63.989s63.989-28.726 63.989-63.989-28.726-63.989-63.989-63.989-63.989 28.726-63.989 63.989zM768.731 0.495c-35.263 0-63.989 28.726-63.989 63.989s28.726 63.989 63.989 63.989 63.989-28.726 63.989-63.989c0-35.435-28.726-63.989-63.989-63.989z"  horiz-adv-x="1024" />

    
    <glyph glyph-name="more" unicode="&#58907;" d="M223.962 288.102c-52.98 0-95.984 43.004-95.984 95.984s43.004 95.984 95.984 95.984 95.984-43.004 95.984-95.984-43.004-95.984-95.984-95.984zM511.914 288.102c-52.98 0-95.984 43.004-95.984 95.984s43.004 95.984 95.984 95.984 95.984-43.004 95.984-95.984-43.004-95.984-95.984-95.984zM800.038 288.102c-52.98 0-95.984 43.004-95.984 95.984s43.004 95.984 95.984 95.984 95.984-43.004 95.984-95.984-43.176-95.984-95.984-95.984z"  horiz-adv-x="1024" />

    
    <glyph glyph-name="team-fill" unicode="&#58890;" d="M518.967 242.174v6.709c89.791 64.161 89.447 175.282 89.275 265.59v13.589c0 130.731-78.782 208.653-210.717 208.653h-6.709c-126.602 0-196.268-74.138-196.268-208.653 0-67.946 0-205.729 103.552-279.179v-5.332c-120.066-17.029-232.735-66.225-232.735-144.664 0-109.057 107.681-162.037 329.063-162.037 283.307 0 342.824 88.071 342.824 162.037 0 83.943-138.815 127.978-218.286 143.288zM929.564 128.301c-17.545 0-31.823 14.277-31.995 31.823-0.344 23.394-101.66 88.415-197.3 99.768-16.169 1.892-28.21 15.653-28.21 31.823v66.225c0 9.805 4.472 18.922 12.041 24.942 54.012 43.176 94.952 137.267 94.952 218.802 0 109.917-74.31 132.967-136.579 132.967-17.717 0-31.995 14.277-31.995 31.995s14.277 31.995 31.995 31.995c123.678 0 200.568-75.514 200.568-197.128 0-94.78-44.208-200.396-106.993-258.365v-24.598c91.856-19.61 225.683-83.943 225.683-158.597 0-17.545-14.277-31.651-31.823-31.823-0.172 0.172-0.172 0.172-0.344 0.172z"  horiz-adv-x="1024" />

    
    <glyph glyph-name="team" unicode="&#58891;" d="M401.309-64.183c-226.543 0-336.632 52.98-336.632 162.209 0 76.718 114.389 127.118 229.983 144.664v6.537c-86.351 66.053-97.876 184.055-97.876 281.071 0 132.107 77.75 211.061 208.137 211.061h6.881c130.387 0 208.137-78.954 208.137-211.061 0-97.016-11.525-214.846-97.876-281.071v-6.537c115.593-17.545 229.983-67.774 229.983-144.664-0-74.138-60.893-162.209-350.737-162.209zM404.921 677.198c-95.64 0-144.148-49.54-144.148-147.072 0-91.339 9.805-190.764 83.083-237.379 9.289-5.848 14.793-15.997 14.793-27.006v-51.26c0-16.341-12.385-30.102-28.554-31.823-121.098-12.729-201.429-59.345-201.429-84.631 0-65.193 91.684-98.22 272.642-98.22 182.163 0 286.748 35.779 286.748 98.22 0 25.286-80.331 71.902-201.429 84.631-16.341 1.72-28.554 15.481-28.554 31.823v51.26c0 11.009 5.676 21.158 14.793 27.006 73.106 46.616 83.083 146.212 83.083 237.379 0 97.532-48.508 147.072-144.148 147.072l-6.881-0zM899.118 132.257c-17.717 0-31.995 14.277-31.995 31.995 0 24.426-91.167 83.943-196.956 95.124-16.341 1.72-28.726 15.481-28.726 31.823v66.397c0 11.009 5.676 21.158 14.793 27.006 82.739 52.636 91.684 169.778 91.684 217.77 0 110.433-74.654 133.655-137.267 133.655-17.717 0-31.995 14.277-31.995 31.995s14.277 31.995 31.995 31.995c124.194 0 201.257-75.686 201.257-197.644 0-55.733-10.665-188.699-106.477-261.289v-22.19c102.176-18.578 225.683-79.987 225.683-154.641 0.172-17.717-14.277-31.995-31.995-31.995z"  horiz-adv-x="1024" />

    
    <glyph glyph-name="filter" unicode="&#58908;" d="M608.242-64.011c-17.717 0-31.995 14.277-31.995 31.995v479.919c0 7.913 2.924 15.653 8.257 21.502l208.825 234.455h-562.83l209.169-234.627c5.16-5.848 8.085-13.417 8.085-21.33v-288.812l50.916-41.111c13.761-11.181 15.825-31.307 4.816-45.068s-31.307-15.825-45.068-4.816l-62.785 51.088c-7.569 6.020-11.869 15.309-11.869 24.942l0 291.736-248.56 278.835c-8.429 9.461-10.493 22.878-5.332 34.403 5.16 11.525 16.685 18.922 29.242 18.922h706.29c12.729 0 24.082-7.397 29.242-19.094 5.16-11.525 2.924-25.114-5.504-34.403l-248.904-278.835v-467.706c0-17.717-14.277-31.995-31.995-31.995z"  horiz-adv-x="1024" />

    
    <glyph glyph-name="trash" unicode="&#58909;" d="M607.898 127.957c-17.717 0-31.995 14.277-31.995 31.995v352.113c0 17.717 14.277 31.995 31.995 31.995s31.995-14.277 31.995-31.995v-351.941c-0-17.717-14.277-32.167-31.995-32.167zM415.93 127.957c-17.717 0-31.995 14.277-31.995 31.995l0 352.113c0 17.717 14.277 31.995 31.995 31.995 17.717 0 31.995-14.277 31.995-31.995v-351.941c-0-17.717-14.277-32.167-31.995-32.167zM928.016 672.038h-159.973l0 63.989c0 52.98-42.659 95.984-95.296 95.984h-320.806c-52.98 0-95.984-43.004-95.984-95.984v-63.989h-159.973c-17.717 0-31.995-14.277-31.995-31.995s14.277-31.995 31.995-31.995h832.032c17.717 0 31.995 14.277 31.995 31.995s-14.277 31.995-31.995 31.995zM319.946 736.027c0 17.545 14.449 31.995 31.995 31.995h320.806c17.545 0 31.307-14.105 31.307-31.995v-63.989h-384.108v63.989zM736.048-64.011h-447.925c-52.98 0-95.984 43.004-95.984 95.984l0 480.435c0 17.717 14.277 31.995 31.995 31.995s31.995-14.277 31.995-31.995v-480.435c0-17.717 14.449-31.995 31.995-31.995h448.097c17.717 0 31.995 14.277 31.995 31.995l-0 479.231c0 17.717 14.277 31.995 31.995 31.995s31.995-14.277 31.995-31.995v-479.231c-0.172-52.808-43.176-95.984-96.156-95.984z"  horiz-adv-x="1024" />

    
    <glyph glyph-name="setting" unicode="&#58910;" d="M511.914 288.102c-52.98 0-95.984 43.004-95.984 95.984s43.004 95.984 95.984 95.984 95.984-43.004 95.984-95.984-43.004-95.984-95.984-95.984zM511.914 416.081c-17.545 0-31.995-14.449-31.995-31.995s14.449-31.995 31.995-31.995 31.995 14.449 31.995 31.995-14.277 31.995-31.995 31.995zM630.948-64.011c-9.977 0-19.782 4.816-25.802 13.073l-73.45 100.628c-13.589-0.86-25.974-0.86-39.563 0l-73.45-100.456c-7.913-10.837-21.674-15.653-34.575-11.869-34.575 9.805-67.43 23.394-97.704 40.251-11.697 6.537-18.061 19.61-15.997 32.855l19.266 123.334c-9.805 8.773-19.094 18.061-27.866 27.866l-123.334-19.266c-13.073-2.064-26.318 4.3-32.855 15.997-16.857 30.446-30.446 63.301-40.251 97.876-3.612 12.901 1.032 26.662 11.869 34.575l100.456 73.45c-0.516 6.881-0.688 13.417-0.688 19.782s0.172 12.901 0.688 19.782l-100.456 73.45c-10.837 7.913-15.653 21.674-11.869 34.575 9.805 34.575 23.394 67.43 40.251 97.704 6.537 11.697 19.782 18.061 32.855 15.997l123.334-19.266c8.773 9.805 18.061 19.094 27.866 27.866l-19.266 123.334c-2.064 13.245 4.3 26.318 16.169 32.855 30.446 16.857 63.301 30.446 97.704 40.251 12.901 3.612 26.662-1.032 34.575-11.869l73.45-100.456c13.589 0.86 25.802 0.86 39.563 0l73.45 100.456c7.913 10.837 21.674 15.481 34.575 11.869 34.403-9.805 67.258-23.394 97.704-40.251 11.697-6.537 18.061-19.61 15.997-32.855l-19.266-123.334c9.805-8.773 19.094-18.061 27.866-27.694l123.334 19.266c13.073 2.064 26.318-4.3 32.855-15.997 16.857-30.446 30.446-63.301 40.423-97.876 3.612-12.901-1.032-26.662-11.869-34.575l-100.628-73.45c0.516-6.881 0.688-13.417 0.688-19.782 0-6.365-0.172-12.901-0.688-19.782l100.456-73.45c10.837-7.913 15.481-21.674 11.869-34.575-9.805-34.575-23.394-67.43-40.423-97.876-6.537-11.697-19.438-18.061-32.855-15.997l-123.162 19.094c-8.601-9.805-18.061-19.094-27.866-27.694l19.266-123.334c2.064-13.245-4.3-26.318-15.997-32.855-30.274-16.857-63.129-30.446-97.704-40.251-2.924-0.86-5.848-1.376-8.945-1.376zM337.148 23.372c13.933-6.709 28.554-12.729 43.52-17.889l70.526 96.5c6.709 9.289 18.061 14.277 29.414 12.901 20.642-2.408 42.143-2.408 62.613 0 11.869 1.376 22.706-3.612 29.414-12.901l70.526-96.5c14.965 5.16 29.586 11.181 43.52 17.889l-18.406 118.346c-1.72 11.353 2.752 22.878 11.697 29.93 16.341 13.073 31.307 27.866 44.208 44.208 7.225 8.945 18.406 13.589 29.93 11.697l118.346-18.406c6.709 13.933 12.729 28.554 17.889 43.52l-96.5 70.526c-9.289 6.709-14.277 18.061-12.901 29.414 1.204 10.321 1.892 20.642 1.892 31.307s-0.688 20.986-1.892 31.307c-1.376 11.353 3.612 22.706 12.901 29.414l96.5 70.526c-5.16 14.965-11.181 29.586-17.889 43.52l-118.346-18.406c-11.353-1.72-22.878 2.752-29.93 11.697-12.901 16.169-27.694 31.135-44.208 44.208-8.945 7.225-13.417 18.578-11.697 29.93l18.578 118.518c-13.933 6.709-28.554 12.729-43.52 17.889l-70.526-96.5c-6.709-9.289-17.717-14.449-29.414-12.901-20.47 2.408-41.971 2.408-62.613 0-11.525-1.376-22.706 3.612-29.586 12.901l-70.526 96.5c-14.965-5.16-29.586-11.181-43.52-17.889l18.406-118.346c1.72-11.353-2.752-22.878-11.697-29.93-16.341-12.901-31.135-27.866-44.208-44.208-7.225-8.945-18.578-13.417-29.93-11.697l-118.346 18.406c-6.709-13.933-12.729-28.554-17.889-43.52l96.5-70.526c9.289-6.709 14.277-18.061 12.901-29.586-1.204-10.149-1.892-20.642-1.892-31.135 0-10.665 0.688-20.986 1.892-31.307 1.376-11.525-3.612-22.706-12.901-29.586l-96.5-70.526c5.16-14.965 11.181-29.586 17.889-43.52l118.346 18.406c11.353 1.72 22.878-2.752 29.93-11.697 12.901-16.341 27.694-31.135 44.208-44.208 8.945-7.225 13.589-18.578 11.697-29.93l-18.406-118.346z"  horiz-adv-x="1024" />

    
    <glyph glyph-name="idcard" unicode="&#58911;" d="M209.513 5.139c-62.613 0-113.529 50.916-113.529 113.529l0 498.497c0 62.613 50.916 113.529 113.529 113.529h623.035c62.613 0 113.529-50.916 113.529-113.529v-498.497c0-62.613-50.916-113.529-113.529-113.529h-623.035zM209.513 669.801c-28.898 0-52.636-23.566-52.636-52.636v-498.497c0-28.898 23.566-52.636 52.636-52.636h623.035c28.898 0 52.636 23.566 52.636 52.636v498.497c0 28.898-23.566 52.636-52.636 52.636h-623.035zM791.093 192.118c-16.857 0-30.446 13.761-30.446 30.446 0 51.948-42.143 94.092-94.092 94.092s-94.092-42.143-94.092-94.092c0-16.857-13.761-30.446-30.446-30.446-16.857 0-30.446 13.761-30.446 30.446 0 53.152 27.35 102.176 72.418 130.559-19.782 20.986-30.791 48.508-30.791 77.234 0 62.613 50.916 113.529 113.529 113.529s113.529-50.916 113.529-113.529c0-28.726-11.181-56.077-30.791-77.234 44.896-28.382 72.418-77.234 72.418-130.559-0.172-16.685-13.933-30.446-30.791-30.446zM666.555 482.822c-28.898 0-52.636-23.566-52.636-52.636s23.566-52.636 52.636-52.636c29.070 0 52.636 23.566 52.636 52.636s-23.738 52.636-52.636 52.636zM434.508 482.134h-186.291c-17.717 0-31.995 14.277-31.995 31.995 0 17.717 14.277 31.995 31.995 31.995h186.291c17.717 0 31.995-14.277 31.995-31.995 0-17.717-14.277-31.995-31.995-31.995zM434.508 336.094h-186.291c-17.717 0-31.995 14.277-31.995 31.995s14.277 31.995 31.995 31.995h186.291c17.717 0 31.995-14.277 31.995-31.995s-14.277-31.995-31.995-31.995zM434.508 191.602h-186.291c-17.717 0-31.995 14.277-31.995 31.995s14.277 31.995 31.995 31.995h186.291c17.717 0 31.995-14.277 31.995-31.995s-14.277-31.995-31.995-31.995z"  horiz-adv-x="1024" />

    
    <glyph glyph-name="time" unicode="&#58897;" d="M511.914 832.011c-247.012 0-447.925-200.912-447.925-447.925s200.912-447.925 447.925-447.925 447.925 200.912 447.925 447.925-200.912 447.925-447.925 447.925zM511.914 0.323c-211.577 0-383.763 172.186-383.763 383.763 0 211.577 172.014 383.763 383.763 383.763s383.763-172.014 383.763-383.763-172.186-383.763-383.763-383.763zM672.059 384.086h-159.973v223.79c0 17.717-14.277 32.167-31.995 32.167-17.717 0-31.995-14.449-31.995-32.167v-255.957c0-17.717 14.277-31.995 31.995-31.995h191.968c17.717 0 32.167 14.277 32.167 31.995-0.172 17.889-14.621 32.167-32.167 32.167z"  horiz-adv-x="1024" />

    
    <glyph glyph-name="home-fill" unicode="&#58888;" d="M982.029 491.595l-408.706 320.462c-34.919 27.694-89.619 27.694-124.538 0l-405.609-320.634c-13.933-11.009-16.169-31.135-5.332-44.896s31.135-16.169 44.896-5.332l13.073 10.321v-387.548c0-54.873 56.937-95.984 107.853-95.984h639.892c50.228 0 84.115 38.531 84.115 95.984v388.58l14.449-11.353c5.848-4.644 12.729-6.881 19.782-6.881 9.461 0 18.922 4.128 25.286 12.213 11.181 13.933 8.601 34.059-5.16 45.068zM607.898 98.887v-66.741h-191.968v179.067c0 37.155 30.102 77.234 95.984 77.234 66.053 0 95.984-40.079 95.984-77.234l-0-112.325z"  horiz-adv-x="1024" />

    
    <glyph glyph-name="home" unicode="&#58889;" d="M979.792 491.423l-405.609 320.634c-34.919 27.694-89.619 27.694-124.538 0l-405.437-320.634c-13.933-11.009-16.169-31.135-5.332-44.896s30.619-16.169 44.552-5.332l12.557 10.321v-387.548c0-54.873 57.969-95.984 108.713-95.984h639.892c50.228 0 83.255 38.531 83.255 95.984l0 386.172 11.697-8.945c5.848-4.644 13.073-6.881 20.126-6.881 9.461 0 18.922 4.128 25.286 12.213 11.009 13.761 8.773 33.887-5.16 44.896zM479.919 31.973v177.519c0 8.773 15.997 13.245 31.995 13.245s31.995-4.472 31.995-13.245v-177.347l-63.989-0.172zM864.027 63.968c0-21.158-5.848-31.995-19.266-31.995l-236.175 0c0 0.516-0.688 0.86-0.688 1.376v176.142c0 37.155-29.93 77.234-95.984 77.234s-95.984-40.079-95.984-77.234v-176.142c0-0.516 0.86-0.86 0.86-1.376h-211.921c-20.126 0-44.724 17.373-44.724 31.995v438.292l328.719 259.569c11.869 9.289 33.199 9.289 44.896 0l330.095-261.117v-436.744z"  horiz-adv-x="1024" />

    
    <glyph glyph-name="search" unicode="&#58883;" d="M953.474-12.235l-152.577 163.241c61.925 74.482 95.812 167.37 95.812 265.074 0 229.295-186.635 415.93-416.102 415.93-229.295 0-415.93-186.635-415.93-415.93s186.635-415.93 415.93-415.93c60.033 0 118.002 12.557 172.186 37.327 16.169 7.397 23.222 26.318 15.825 42.315-7.397 16.169-26.318 23.222-42.315 15.825-45.928-20.814-94.952-31.479-145.696-31.479-194.032 0-351.941 157.909-351.941 351.941 0 194.032 157.909 351.941 351.941 351.941 194.032 0 351.941-157.909 351.941-351.941 0-91.339-34.919-177.863-98.048-243.744-12.213-12.729-11.869-33.027 0.86-45.24 1.032-0.86 2.236-1.204 3.268-2.064 0.86-1.204 1.376-2.752 2.408-3.956l165.478-177.003c6.193-6.709 14.793-10.149 23.394-10.149 7.913 0 15.653 2.924 21.846 8.601 13.073 12.041 13.761 32.339 1.72 45.24z"  horiz-adv-x="1024" />

    
    <glyph glyph-name="bell-fill" unicode="&#58901;" d="M889.829 146.363c-1.204 1.72-119.206 165.822-119.206 287.436 0 168.402-76.202 254.753-162.725 286.92l0 15.309c0 52.98-43.176 95.984-95.984 95.984s-95.984-43.176-95.984-95.984v-15.309c-86.523-32.167-162.725-118.518-162.725-286.92 0-121.27-118.002-285.199-119.206-286.92-5.332-7.569-7.397-16.857-5.332-25.974 2.064-8.945 7.913-16.685 15.997-20.986 5.676-3.096 107.337-57.281 233.423-84.459 21.33-66.397 73.966-111.293 133.655-111.293s112.325 44.896 133.655 111.293c126.086 27.178 227.747 81.019 233.423 83.943 8.257 4.472 13.933 12.041 16.169 20.986 2.236 8.945 0.344 18.406-5.16 25.974zM479.919 736.027c0 17.545 14.449 31.995 31.995 31.995 17.545 0 31.995-14.449 31.995-31.995v-0.86c-7.225 0.516-14.277 0.86-21.33 0.86h-21.33c-7.053 0-14.105-0.344-21.33-0.86l-0 0.86zM511.914-32.016c-22.362 0-43.176 13.417-57.969 35.263 19.266-2.064 38.531-3.268 57.969-3.268s38.875 1.376 57.969 3.268c-14.793-21.846-35.607-35.263-57.969-35.263z"  horiz-adv-x="1024" />

    
    <glyph glyph-name="bell" unicode="&#58902;" d="M889.829 146.363c-1.204 1.548-119.206 166.166-119.206 287.436 0 168.402-76.202 254.753-162.725 286.92l0 15.309c0 52.98-43.176 95.984-95.984 95.984s-95.984-43.176-95.984-95.984v-16.685c-10.837-7.913-16.169-21.846-11.869-35.263 5.332-16.857 23.394-25.974 40.251-20.642 17.717 5.676 36.983 8.429 56.937 8.429h21.33c115.249 0 184.055-89.103 184.055-238.24 0-108.025 72.934-235.315 110.261-293.456-57.453-26.146-183.023-76.202-304.809-76.202-121.442 0-247.356 50.4-304.809 76.546 37.327 57.969 110.089 184.915 110.089 293.112 0 62.441 11.525 114.217 34.575 153.953 8.773 15.309 3.612 34.919-11.697 43.692-15.481 8.945-34.919 3.612-43.692-11.697-28.554-49.54-43.176-112.153-43.176-185.947 0-121.27-118.002-285.199-119.206-286.92-5.332-7.569-7.397-16.857-5.332-25.974 2.064-8.945 7.913-16.685 15.997-20.986 5.676-3.096 107.337-57.281 233.423-84.459 21.33-66.397 73.966-111.293 133.655-111.293s112.325 44.896 133.655 111.293c126.086 27.178 227.747 81.019 233.423 83.943 8.085 4.472 13.933 12.041 16.169 20.986 2.064 9.117 0.172 18.578-5.332 26.146zM501.249 736.027c-7.225 0-14.277-1.032-21.33-1.548v1.548c0 17.545 14.449 31.995 31.995 31.995 17.545 0 31.995-14.449 31.995-31.995v-0.86c-7.225 0.516-14.277 0.86-21.33 0.86h-21.33zM511.914-32.016c-22.362 0-43.176 13.417-57.969 35.263 19.266-2.064 38.531-3.268 57.969-3.268s38.875 1.376 57.969 3.268c-14.793-21.846-35.607-35.263-57.969-35.263z"  horiz-adv-x="1024" />

    
    <glyph glyph-name="user-fill" unicode="&#58892;" d="M877.444 23.544c0 0-162.897 82.739-237.724 88.071v23.738c119.722 50.916 195.064 174.938 195.064 319.946 0 190.076-145.868 344.544-325.107 344.544s-325.107-154.641-325.107-344.544c0-146.728 77.406-271.954 199.536-321.666v-22.018h-1.548c-69.494-3.44-235.315-87.727-235.315-87.727s-21.674-18.233-19.266-31.995c2.408-13.761 14.793-23.91 29.070-23.91h709.386c14.277 0 26.318 9.805 29.070 23.394 2.752 13.589-18.061 32.167-18.061 32.167z"  horiz-adv-x="1024" />

    
    <glyph glyph-name="user" unicode="&#58893;" d="M159.973-32.016c-10.665 0-20.986 5.332-27.178 14.965-9.461 14.965-4.988 34.747 9.977 44.208 5.504 3.44 136.579 85.491 240.648 90.651h0.516v17.889c-120.41 49.884-199.708 175.626-199.708 320.462 0 189.56 145.868 343.856 325.279 343.856s325.279-154.125 325.279-343.856c0-144.664-75.858-267.138-195.064-318.398v-20.298c104.757-9.461 234.799-86.695 240.476-89.963 15.137-9.117 20.126-28.726 11.009-43.864-9.117-15.137-28.726-20.126-43.864-11.009-1.204 0.688-126.258 74.826-214.158 81.363h-25.458c-17.717 0-31.995 14.277-31.995 31.995v73.966c0 13.589 8.601 25.802 21.674 30.274 105.445 36.295 173.39 140.708 173.39 266.278 0.172 153.953-116.97 279.523-261.117 279.523-144.148 0-261.289-125.57-261.289-279.867 0-125.742 71.386-233.251 177.519-267.654 13.245-4.3 22.19-16.513 22.19-30.446v-72.246c0-17.717-14.277-31.995-31.995-31.995h-30.963c-85.835-4.3-206.761-79.987-207.965-80.847-5.332-3.268-11.353-4.988-17.201-4.988z"  horiz-adv-x="1024" />

    
    <glyph glyph-name="heart-fill" unicode="&#58924;" d="M736.048 768.022c-65.881 0-128.495-24.942-176.314-70.526-4.644-4.3-28.726-28.726-47.304-47.648l-47.304 47.132c-47.82 45.756-110.605 71.042-177.003 71.042-141.224 0-255.957-114.905-255.957-255.957 0-82.395 41.111-144.32 76.546-182.507l316.85-320.118c25.114-25.114 52.98-41.455 86.695-41.455s61.581 16.341 86.695 41.455l318.914 322.354c38.187 47.648 74.31 92.716 74.31 180.099-0.172 141.224-115.077 256.129-256.129 256.129z"  horiz-adv-x="1024" />

    
    <glyph glyph-name="heart" unicode="&#58925;" d="M511.914-32.016c-28.898 0-57.969 12.729-86.695 41.455l-318.914 322.526c-38.187 47.648-74.31 92.716-74.31 180.099 0 141.224 114.905 255.957 255.957 255.957 53.152 0 104.069-16.169 147.244-46.616 14.449-10.149 17.889-30.102 7.741-44.552-10.149-14.449-30.102-17.889-44.552-7.741-32.339 22.878-70.526 34.919-110.433 34.919-105.961 0-191.968-86.179-191.968-191.968 0-61.409 20.298-90.135 59.173-138.643l315.646-318.742c15.997-15.997 28.898-22.362 41.283-22.534 12.729-0.172 24.942 6.193 41.455 22.706l316.678 319.946c25.974 28.21 57.969 75.858 57.969 137.439 0 105.961-86.179 191.968-191.968 191.968-47.992 0-94.092-17.889-129.527-50.228l-133.999-134.171c-12.557-12.557-32.683-12.557-45.24 0s-12.557 32.683 0 45.24l135.031 135.203c48.336 44.208 109.745 67.946 173.734 67.946 141.224 0 255.957-114.905 255.957-255.957 0-82.395-41.111-144.32-75.686-181.647l-317.71-320.978c-28.898-28.898-57.797-41.627-86.867-41.627z"  horiz-adv-x="1024" />

    
    <glyph glyph-name="message-fill" unicode="&#58903;" d="M511.914 828.914c-247.012 0-447.925-172.358-447.925-384.108 0-116.454 62.957-226.027 174.078-301.369l84.115-51.948c-3.612-23.566-18.75-74.482-33.371-115.938-4.3-12.041-0.86-25.458 8.429-34.231 6.020-5.504 13.761-8.429 21.674-8.429 4.472 0 8.773 0.86 13.073 2.752 36.467 16.169 147.416 68.978 187.495 125.398 243.572 3.44 440.356 174.422 440.356 383.935 0.172 211.577-200.74 383.935-447.925 383.935zM580.204 352.091h-195.236c-17.717 0-31.995 14.277-31.995 31.995s14.277 31.995 31.995 31.995h195.236c17.717 0 31.995-14.277 31.995-31.995s-14.277-31.995-31.995-31.995zM640.925 480.070h-255.957c-17.717 0-31.995 14.277-31.995 31.995s14.277 31.995 31.995 31.995h255.957c17.717 0 31.995-14.277 31.995-31.995 0-17.717-14.277-31.995-31.995-31.995z"  horiz-adv-x="1024" />

    
    <glyph glyph-name="message" unicode="&#58904;" d="M639.892 480.070h-255.957c-17.717 0-31.995 14.277-31.995 31.995s14.277 31.995 31.995 31.995l255.957-0c17.717 0 31.995-14.277 31.995-31.995s-14.277-31.995-31.995-31.995zM579.172 352.091h-195.236c-17.717 0-31.995 14.277-31.995 31.995s14.449 31.995 31.995 31.995h195.236c17.717 0 31.995-14.277 31.995-31.995s-14.277-31.995-31.995-31.995zM962.247 448.075c0 211.749-200.912 383.935-447.925 383.935s-448.097-172.186-448.097-383.935c0-116.454 62.957-226.027 172.874-300.681 14.621-9.977 34.575-6.193 44.38 8.429 9.977 14.621 6.193 34.575-8.429 44.38-92.028 62.441-144.836 152.749-144.836 247.7 0 176.486 172.186 319.946 383.935 319.946s383.935-143.632 383.935-319.946-172.186-319.946-383.935-319.946c-2.064 0-3.612-0.688-5.504-1.204-15.137 2.752-30.446-5.16-35.779-20.126-6.193-17.373-46.444-46.616-94.092-73.794 17.373 58.141 9.117 70.698 3.44 78.954-6.709 9.977-17.889 15.997-29.93 15.997-17.717 0-31.995-14.277-31.995-31.995 0-5.848 1.548-11.181 4.3-15.997-3.268-18.233-17.201-60.893-33.027-99.768-4.988-12.041-2.064-25.974 7.397-35.091 6.020-5.848 14.105-8.945 22.19-8.945 4.3 0 8.773 0.86 13.073 2.752 36.467 16.341 147.588 69.15 187.667 125.57 243.4 3.612 440.356 174.078 440.356 383.763z"  horiz-adv-x="1024" />

    
    <glyph glyph-name="marker-fill" unicode="&#58885;" d="M511.914 832.011c-194.032 0-351.941-157.909-351.941-351.941 0-187.323 315.474-519.999 328.891-534.104 6.020-6.365 14.449-9.977 23.222-9.977 0.172 0 0.516 0 0.688 0 8.945 0 17.545 4.128 23.394 11.009l109.229 125.054c145.18 177.691 218.63 314.958 218.63 407.845 0 194.204-157.909 352.113-352.113 352.113zM511.914 320.097c-88.415 0-159.973 71.558-159.973 159.973s71.558 159.973 159.973 159.973 159.973-71.558 159.973-159.973-71.558-159.973-159.973-159.973z"  horiz-adv-x="1024" />

    
    <glyph glyph-name="marker" unicode="&#58884;" d="M511.914 288.102c-105.961 0-191.968 86.179-191.968 191.968s86.179 191.968 191.968 191.968 191.968-86.179 191.968-191.968-86.007-191.968-191.968-191.968zM511.914 608.048c-70.526 0-127.978-57.453-127.978-127.978s57.453-127.978 127.978-127.978 127.978 57.453 127.978 127.978-57.281 127.978-127.978 127.978zM511.914-64.011c-7.913 0-15.825 2.924-22.018 8.773-12.729 12.213-13.245 32.511-1.032 45.24 86.523 90.651 311.174 355.553 311.174 489.896 0 158.769-129.183 287.952-287.952 287.952-158.769 0-287.952-129.183-287.952-287.952 0-75.686 72.59-206.073 204.181-367.422 11.181-13.761 9.117-33.887-4.472-45.068-13.761-11.181-33.887-9.117-45.068 4.472-145.18 178.035-218.802 315.13-218.802 408.189 0 194.032 157.909 351.941 351.941 351.941s352.113-157.909 352.113-351.941c0-187.323-315.474-519.999-328.891-534.104-6.365-6.537-14.621-9.977-23.222-9.977z"  horiz-adv-x="1024" />

    
    <glyph glyph-name="bottom" unicode="&#58887;" d="M792.855 430.194c-6.241 6.208-14.369 9.311-22.56 9.311s-16.447-3.169-22.688-9.44l-207.91-207.74v565.281c0 17.696-14.336 31.999-32.001 31.999s-32.001-14.303-32.001-31.999v-563.713l-206.24 206.164c-6.272 6.208-14.432 9.344-22.624 9.344-8.224 0-16.418-3.136-22.657-9.408-12.511-12.513-12.48-32.768 0.033-45.248l259.329-259.126c3.265-3.263 7.104-5.599 11.137-7.135 3.999-1.792 8.352-2.88 13.024-2.88 1.12 0 2.080 0.544 3.2 0.64 8.288-0.064 16.609 3.009 22.977 9.408l259.11 259.292c12.48 12.511 12.447 32.799-0.127 45.248zM892.561 20.469c0-17.665-14.303-32.001-31.999-32.001h-704c-17.665 0-32.001 14.334-32.001 31.999 0 17.665 14.336 32.001 32.001 32.001h704c17.696 0 31.999-14.334 31.999-31.999z"  horiz-adv-x="1024" />

    
    <glyph glyph-name="top" unicode="&#58886;" d="M796.423 371.522l-259.11 259.292c-6.368 6.399-14.689 9.471-22.977 9.408-1.12 0.096-2.080 0.64-3.2 0.64-4.672 0-9.024-1.087-13.024-2.88-4.032-1.536-7.872-3.872-11.137-7.135l-259.329-259.124c-12.513-12.48-12.544-32.735-0.033-45.248 6.239-6.272 14.432-9.408 22.657-9.408 8.192 0 16.352 3.136 22.624 9.344l206.24 206.162v-563.713c0-17.696 14.336-31.999 32.001-31.999s32.001 14.303 32.001 31.999v565.281l207.91-207.74c6.241-6.272 14.496-9.44 22.688-9.44s16.32 3.103 22.56 9.311c12.575 12.449 12.607 32.737 0.127 45.248zM864.003 704h-704c-17.665 0-32.001 14.336-32.001 32.001s14.336 31.999 32.001 31.999h704c17.696 0 31.999-14.336 31.999-32.001s-14.303-31.999-31.999-31.999z"  horiz-adv-x="1024" />

    
    <glyph glyph-name="up-triangle" unicode="&#58931;" d="M861.417 157.273c41.605 0 65.233 54.964 34.929 85.258l-349.274 349.278c-20.030 20.032-49.822 20.032-69.854 0l-349.262-349.278c-31.086-31.074-5.137-85.258 35.441-85.258l698.021-0zM959.524 37.208z"  horiz-adv-x="1024" />

    
    <glyph glyph-name="up-circle" unicode="&#58934;" d="M512-64c-247.039 0-448 200.961-448 448s200.961 448 448 448 448-200.961 448-448-200.961-448-448-448zM512 768c-211.744 0-384-172.256-384-384s172.256-384 384-384 384 172.256 384 384-172.256 384-384 384zM694.463 437.632l-158.496 160.255c-9.344 9.471-23.168 11.84-34.784 7.135-0.736-0.287-1.313-0.993-2.016-1.343-2.976-1.472-5.952-3.072-8.448-5.536-0.033-0.033-0.033-0.064-0.064-0.096-0.033-0.033-0.064-0.033-0.096-0.064l-159.359-158.912c-12.513-12.48-12.544-32.735-0.064-45.248 6.239-6.272 14.463-9.408 22.657-9.408 8.161 0 16.352 3.103 22.591 9.344l103.616 103.296v-305.057c0-17.696 14.336-31.999 32.001-31.999s32.001 14.303 32.001 31.999l-0 306.753 104.96-106.112c6.239-6.335 14.496-9.504 22.751-9.504 8.128 0 16.256 3.072 22.497 9.248 12.573 12.416 12.702 32.672 0.253 45.248z"  horiz-adv-x="1024" />

    
    <glyph glyph-name="down-triangle" unicode="&#58935;" d="M163.397 606.831c-40.578 0-66.525-54.185-35.441-85.258l349.262-349.278c20.032-20.032 49.824-20.032 69.854 0l349.274 349.278c30.305 30.294 6.678 85.258-34.929 85.258h-698.021zM959.524 37.208z"  horiz-adv-x="1024" />

    
    <glyph glyph-name="down-circle" unicode="&#58937;" d="M512-64c-247.039 0-448 200.961-448 448s200.961 448 448 448 448-200.961 448-448-200.961-448-448-448zM512 768c-211.744 0-384-172.256-384-384s172.256-384 384-384 384 172.256 384 384-172.256 384-384 384zM694.56 373.856c-12.544 12.607-33.375 12.64-45.952 0.064l-104.609-103.903 0 306.656c0 17.759-14.209 32.161-32.001 32.161-17.759 0-32.001-14.4-32.001-32.161v-308.32l-105.216 106.688c-12.48 12.607-32.704 12.736-45.312 0.256-12.64-12.513-12.673-32.895-0.193-45.504l159.359-161.055c6.272-6.335 14.592-9.568 22.88-9.568 8.161 0 16.383 3.169 22.624 9.311 0.033 0.064 0.033 0.064 0.064 0.127 0.033 0 0.064 0 0.096 0.064l160.192 159.679c12.58 12.544 12.611 32.928 0.067 45.504z"  horiz-adv-x="1024" />

    
    <glyph glyph-name="right-circle" unicode="&#58939;" d="M512-64c-247.039 0-448 200.961-448 448s200.961 448 448 448 448-200.961 448-448-200.961-448-448-448zM512 768c-211.744 0-384-172.256-384-384s172.256-384 384-384 384 172.256 384 384-172.256 384-384 384zM732.96 394.848c-0.033 0.127-0.193 0.256-0.256 0.384-1.536 3.616-3.649 7.072-6.592 10.048-0.033 0.033-0.064 0.033-0.096 0.064-0.033 0.033-0.033 0.064-0.064 0.096l-158.912 159.359c-12.48 12.48-32.704 12.576-45.248 0.064-12.513-12.48-12.544-32.735-0.064-45.248l103.329-103.616-305.057 0c-17.665 0-31.999-14.336-31.999-32.001s14.336-32.001 31.999-32.001h306.753l-106.112-104.96c-12.576-12.447-12.673-32.672-0.256-45.248 6.239-6.335 14.496-9.504 22.751-9.504 8.128 0 16.256 3.103 22.497 9.248l160.255 158.496c9.44 9.38 11.84 23.205 7.072 34.82z"  horiz-adv-x="1024" />

    
    <glyph glyph-name="left-circle" unicode="&#58941;" d="M512-64c-247.039 0-448 200.961-448 448s200.961 448 448 448 448-200.961 448-448-200.961-448-448-448zM512 768c-211.744 0-384-172.256-384-384s172.256-384 384-384 384 172.256 384 384-172.256 384-384 384zM290.368 371.647c0.033-0.127 0.193-0.256 0.256-0.384 1.536-3.616 3.649-7.072 6.592-10.048 0.033-0.033 0.064-0.033 0.096-0.064s0.033-0.064 0.064-0.096l158.912-159.359c12.48-12.513 32.704-12.576 45.248-0.064 12.513 12.48 12.544 32.704 0.064 45.248l-103.327 103.616h305.057c17.665 0 31.999 14.336 31.999 32.001s-14.336 32.001-31.999 32.001l-306.753-0 106.112 104.96c12.576 12.447 12.673 32.672 0.256 45.248-6.241 6.335-14.496 9.504-22.751 9.504-8.128 0-16.256-3.103-22.497-9.248l-160.255-158.496c-9.44-9.38-11.809-23.171-7.073-34.82z"  horiz-adv-x="1024" />

    
    <glyph glyph-name="voice" unicode="&#58927;" d="M511.966 192.013c123.545 0 224.008 100.5 224.008 224.012v255.967c-0.004 123.508-100.464 224.008-224.008 224.008-123.512 0-223.976-100.5-223.976-224.008v-255.971c0-123.508 100.464-224.008 223.976-224.008zM351.987 672.028c0 88.188 71.786 160.011 159.978 160.011 88.225 0 160.015-71.822 160.015-160.011v-255.971c0-88.225-71.79-159.982-160.015-159.982-88.192 0-159.978 71.794-159.978 159.982l0 255.971zM895.992 416.021h-63.998c0-176.486-143.515-320.001-320.005-320.001-176.441 0-319.956 143.515-319.956 320.001l-64.026-0c0-201.004 155.191-366.053 351.955-382.387v-97.621h-191.519v-63.998h447.563v63.998h-192.013v97.621c196.768 16.37 352 181.382 352 382.387z"  horiz-adv-x="1024" />

    
    <glyph glyph-name="arrow-up" unicode="&#58950;" d="M827.563 384l-259.313 253.069v-703.013h-112.5v703.013l-259.313-253.069-78.188 77.119 393.75 372.938 393.75-372.938-78.188-77.119z"  horiz-adv-x="1024" />

    
    <glyph glyph-name="more-v" unicode="&#58949;" d="M416.101 672.038c0 52.981 43.003 95.984 95.984 95.984s95.984-43.003 95.984-95.984-43.003-95.984-95.984-95.984-95.984 43.003-95.984 95.984zM416.102 384.086c0 52.981 43.003 95.984 95.984 95.984s95.984-43.003 95.984-95.984-43.003-95.984-95.984-95.984-95.984 43.003-95.984 95.984zM416.101 95.962c0 52.981 43.003 95.984 95.984 95.984s95.984-43.003 95.984-95.984-43.003-95.984-95.984-95.984-95.984 43.176-95.984 95.984z"  horiz-adv-x="1024" />

    
    <glyph glyph-name="down" unicode="&#58990;" d="M943.685 559.005c-3.926-3.92-11.047-11.072-11.047-11.072l-420.972-418.886-421.026 418.887c0 0-7.143 7.152-11.072 11.072-18.354 18.23-18.354 47.854 0 66.125 18.325 18.288 48.137 18.288 66.463 0 3.926-3.91 11.088-10.995 11.088-10.995l354.521-352.81 354.518 352.81c0 0 7.171 7.088 11.101 10.995 18.354 18.288 48.112 18.288 66.425 0 18.393-18.272 18.393-47.896 0.001-66.126z"  horiz-adv-x="1024" />

    
    <glyph glyph-name="arrow-down" unicode="&#58951;" d="M196.437 384l259.313-253.069v703.013h112.5v-703.013l259.313 253.069 78.188-77.119-393.75-372.938-393.75 372.938 78.187 77.119z"  horiz-adv-x="1024" />

    
    <glyph glyph-name="up" unicode="&#59187;" d="M80.315 208.995c3.926 3.92 11.046 11.072 11.046 11.072l420.972 418.886 421.026-418.887c0 0 7.143-7.152 11.072-11.072 18.354-18.23 18.354-47.854 0-66.124-18.325-18.288-48.137-18.289-66.462 0-3.926 3.91-11.088 10.995-11.088 10.995l-354.521 352.81-354.518-352.81c0 0-7.171-7.088-11.101-10.995-18.354-18.288-48.112-18.288-66.426 0-18.393 18.272-18.393 47.896-0.001 66.126z"  horiz-adv-x="1024" />

    
    <glyph glyph-name="left" unicode="&#59188;" d="M687.005-47.685c-3.92 3.926-11.072 11.046-11.072 11.046l-418.886 420.972 418.887 421.026c0 0 7.152 7.143 11.072 11.072 18.23 18.354 47.854 18.354 66.124 0 18.288-18.325 18.289-48.137 0-66.462-3.91-3.926-10.995-11.088-10.995-11.088l-352.81-354.521 352.81-354.518c0 0 7.088-7.171 10.995-11.101 18.288-18.354 18.288-48.112 0-66.426-18.272-18.393-47.896-18.393-66.126-0.001z"  horiz-adv-x="1024" />

    
    <glyph glyph-name="right" unicode="&#59189;" d="M336.995 815.685c3.92-3.926 11.072-11.046 11.072-11.046l418.886-420.972-418.887-421.026c0 0-7.152-7.143-11.072-11.072-18.23-18.354-47.854-18.354-66.124 0-18.288 18.325-18.289 48.137 0 66.462 3.91 3.926 10.995 11.088 10.995 11.088l352.81 354.521-352.81 354.518c0 0-7.088 7.171-10.995 11.101-18.288 18.354-18.288 48.112 0 66.426 18.272 18.393 47.896 18.393 66.126 0.001z"  horiz-adv-x="1024" />

    
    <glyph glyph-name="menu" unicode="&#59174;" d="M128 682.656h768q17.664 0 30.176000000000002-12.512t12.512-30.176000000000002-12.512-30.176000000000002T896 597.28H128q-17.664 0-30.176000000000002 12.512t-12.512 30.176000000000002 12.512 30.176000000000002T128 682.656z m0-512h768q17.664 0 30.176000000000002-12.512t12.512-30.176000000000002-12.512-30.176000000000002T896 85.27999999999997H128q-17.664 0-30.176000000000002 12.512t-12.512 30.176000000000002 12.512 30.176000000000002T128 170.65599999999995z m0 256h768q17.664 0 30.176000000000002-12.512t12.512-30.176000000000002-12.512-30.176000000000002T896 341.28H128q-17.664 0-30.176000000000002 12.512t-12.512 30.176000000000002 12.512 30.176000000000002T128 426.656z"  horiz-adv-x="1024" />

    


  </font>
</defs>
</svg>
